<svg xmlns="http://www.w3.org/2000/svg" viewBox="0 0 64 64">
  <rect width="64" height="64" rx="16" fill="#16624f"/>

  <!-- document -->
  <path fill="#fdfdfd" d="M10 14.5h11.1l6.7 6.8v18.8a2 2 0 0 1-2 2H10a2 2 0 0 1-2-2V16.5a2 2 0 0 1 2-2Zm11 1v4.2a2 2 0 0 0 2 2h4.1Z" fill-rule="evenodd"/>

  <!-- PowerPoint badge -->
  <rect x="6.4" y="20.7" width="12.8" height="12.5" rx="1.1" fill="#fdfdfd" stroke="#16624f" stroke-width="1.1"/>
  <path fill="#16624f" fill-rule="evenodd" d="M9.4 23.6h3.5c2.3 0 3.7 1.2 3.7 3.1s-1.4 3.1-3.7 3.1h-1.5v1.5h-2Zm2 1.6v3h1.3c1.2 0 1.9-.5 1.9-1.5s-.7-1.5-1.9-1.5Z"/>
  <path d="M11 35.9h13.4M11 38.5h9.8" fill="none" stroke="#16624f" stroke-width="1.4" stroke-linecap="round"/>

  <!-- curved conversion arrow -->
  <path d="M30 20.3c5.3-1.7 10.1 1.5 10.8 5.7" fill="none" stroke="#fdfdfd" stroke-width="1.7" stroke-linecap="round"/>
  <path fill="#fdfdfd" stroke="#fdfdfd" stroke-linejoin="round" d="m40.9 24.1 1.6-1-1.4 5-4.6-2.3 1.9-.8Z"/>

  <!-- video frame -->
  <rect x="29.8" y="29.7" width="23.5" height="17.8" rx="1.7" fill="#fdfdfd"/>
  <rect x="34.7" y="31.8" width="14.5" height="13.5" rx=".6" fill="#16624f"/>
  <g fill="#16624f">
    <rect x="31" y="31.8" width="2.3" height="2.6" rx=".4"/>
    <rect x="31" y="35.5" width="2.3" height="2.6" rx=".4"/>
    <rect x="31" y="39.2" width="2.3" height="2.6" rx=".4"/>
    <rect x="31" y="42.9" width="2.3" height="2.6" rx=".4"/>
    <rect x="49.5" y="31.8" width="2.3" height="2.6" rx=".4"/>
    <rect x="49.5" y="35.5" width="2.3" height="2.6" rx=".4"/>
    <rect x="49.5" y="39.2" width="2.3" height="2.6" rx=".4"/>
    <rect x="49.5" y="42.9" width="2.3" height="2.6" rx=".4"/>
  </g>
  <path fill="#fdfdfd" d="M38.5 35.4a.7.7 0 0 1 1.1-.6l4.9 3.2a.8.8 0 0 1 0 1.3l-4.9 3.2a.7.7 0 0 1-1.1-.6Z"/>

  <!-- emphasis rays -->
  <path d="m50.7 23.7-.8 3.1m5.9-.7-2.3 2.4m4.4 3.7-3.1-.5" fill="none" stroke="#fdfdfd" stroke-width="1.6" stroke-linecap="round"/>

  <!-- speaker badge -->
  <circle cx="51.2" cy="46.4" r="6.5" fill="#16624f" stroke="#fdfdfd" stroke-width=".9"/>
  <path fill="#fdfdfd" d="M47.4 44.7h1.7l1.9-1.8a.6.6 0 0 1 1 .4v6.2a.6.6 0 0 1-1 .4l-1.9-1.8h-1.7a.7.7 0 0 1-.7-.7v-2a.7.7 0 0 1 .7-.7Z"/>
  <path d="M52.8 44.8a2.3 2.3 0 0 1 0 3.2m1-4.3a3.8 3.8 0 0 1 0 5.4" fill="none" stroke="#fdfdfd" stroke-width=".65" stroke-linecap="round"/>
</svg>
